# xmcd
#
# Track frame offsets: 
#        150
#        12949
#        25713
#        43244
#        58713
#        73218
#        92710
#        110511
#        121733
#        138360
#        157244
#        172073
#        188291
#        199525
#        212816
#        236993
#        249360
#        262947
#        277386
#        292424
#        309314
#        327568
#
# Disc length: 4592 seconds
#
# Revision: 2
# Processed by: cddbd v1.5.2PL0 Copyright (c) Steve Scherf et al.
# Submitted via: ExactAudioCopy v0.90b4
#
DISCID=5311ee16
DTITLE=Various Artist - OLON Single Top 100 - Nederlandse Country Special
DYEAR=2007
DGENRE=Country
TTITLE0=Will Stevens - Last Day Of Forever
TTITLE1=Change Of Key - She Can Hardly Wait
TTITLE2=Hans Venneman - Wthout You
TTITLE3=Sandra Mooy - Will You Believe
TTITLE4=Taneytown - Albuquerque New Mexico
TTITLE5=Ad Vanderveen - To Say I Love You
TTITLE6=Aggieland - Grounded
TTITLE7=Dixie Aces - Angel City
TTITLE8=Ruud Hermans and Dick Van Altena - Traveller
TTITLE9=Stef White and Kersten De Ligny - A Million Cries
TTITLE10=Doreen - The Key To My Heart
TTITLE11=Flies The Kitchen - Ashes Of Love
TTITLE12=Gerard Boontjes - It's Never Too Late
TTITLE13=Nickels and Dimes - Open The Door
TTITLE14=Martin Van De Vrugt - Count The Better Days
TTITLE15=Robbie Masters - Sally Ann
TTITLE16=Hans De Jong - Waltzing Picks
TTITLE17=Rudy Van Dam - Haunted By An Angel
TTITLE18=Ben and Carmen Steneker - Under Father's Wings
TTITLE19=Texas Renegade - Shelter From The Storm
TTITLE20=Thecla - A Father And Son
TTITLE21=Windfall - Road To Heaven
EXTD=
EXTT0=
EXTT1=
EXTT2=
EXTT3=
EXTT4=
EXTT5=
EXTT6=
EXTT7=
EXTT8=
EXTT9=
EXTT10=
EXTT11=
EXTT12=
EXTT13=
EXTT14=
EXTT15=
EXTT16=
EXTT17=
EXTT18=
EXTT19=
EXTT20=
EXTT21=
PLAYORDER=
